<?xml version="1.0" standalone="no"?>
<!DOCTYPE svg PUBLIC "-//W3C//DTD SVG 20010904//EN"
 "http://www.w3.org/TR/2001/REC-SVG-20010904/DTD/svg10.dtd">
<svg version="1.0" xmlns="http://www.w3.org/2000/svg"
 width="225.000000pt" height="225.000000pt" viewBox="0 0 225.000000 225.000000"
 preserveAspectRatio="xMidYMid meet">

<g transform="translate(0.000000,225.000000) scale(0.100000,-0.100000)"
fill="#000000" stroke="none">
<path d="M0 1125 l0 -1125 1125 0 1125 0 0 1125 0 1125 -1125 0 -1125 0 0
-1125z m591 395 c24 -13 28 -100 5 -100 -10 0 -16 13 -18 38 -2 29 -7 37 -23
37 -17 0 -20 -7 -20 -44 0 -42 2 -45 32 -53 41 -11 45 -19 45 -79 0 -59 -14
-79 -56 -79 -42 0 -56 16 -56 62 0 49 27 54 32 6 2 -25 8 -33 23 -33 15 0 21
8 23 33 4 37 -12 62 -38 62 -29 0 -44 28 -44 82 0 38 5 54 19 64 22 17 49 18
76 4z m163 -6 c13 -12 16 -39 16 -133 0 -128 -5 -141 -54 -141 -57 0 -61 9
-64 134 -3 105 -2 116 17 135 25 25 63 27 85 5z m156 -4 c27 -27 28 -93 3 -88
-12 2 -20 15 -23 38 -3 22 -11 35 -20 35 -20 0 -33 -84 -25 -162 6 -53 10 -63
26 -63 15 0 19 7 19 35 0 28 4 35 20 35 16 0 20 -7 20 -31 0 -51 -16 -69 -60
-69 -53 0 -60 16 -60 149 0 102 2 111 22 125 30 21 54 20 78 -4z m215 -24 c8
-51 25 -199 25 -223 0 -37 -27 -27 -34 12 -11 57 -56 44 -56 -16 0 -12 -7 -19
-18 -19 -17 0 -17 5 -1 143 10 78 18 142 19 143 0 0 13 -1 30 -4 24 -3 30 -10
35 -36z m360 23 c0 -8 -13 -15 -32 -17 -32 -3 -33 -5 -33 -48 0 -42 1 -44 30
-44 20 0 30 -5 30 -15 0 -10 -10 -15 -30 -15 l-30 0 0 -65 c0 -51 -3 -65 -15
-65 -13 0 -15 23 -15 143 l0 142 47 -1 c34 -1 48 -6 48 -15z m65 -115 l0 -124
36 0 c54 0 37 -24 -19 -28 l-47 -3 0 145 c0 125 2 145 15 140 12 -5 15 -29 15
-130z m122 121 c4 -5 10 -40 14 -77 7 -73 24 -93 25 -30 1 69 13 115 32 118
21 3 21 0 -3 -110 -11 -50 -20 -109 -20 -133 0 -36 -3 -43 -20 -43 -17 0 -20
7 -20 43 0 23 -9 80 -20 127 -11 47 -20 93 -20 103 0 18 20 19 32 2z m-672
-135 c0 -133 -1 -140 -20 -140 -19 0 -20 7 -20 140 0 133 1 140 20 140 19 0
20 -7 20 -140z m220 15 l0 -125 30 0 c20 0 30 -5 30 -15 0 -11 -12 -15 -50
-15 l-50 0 0 140 c0 133 1 140 20 140 19 0 20 -7 20 -125z m-347 -383 c36 -32
6 -130 -55 -175 -42 -31 -45 -13 -5 25 42 40 67 109 47 133 -7 8 -26 15 -42
15 -97 0 -228 -150 -228 -260 0 -55 18 -62 108 -43 66 13 75 13 98 -1 13 -9
24 -25 24 -36 0 -26 13 -25 69 6 39 21 51 34 64 72 10 26 17 51 17 56 0 5 -21
6 -46 2 -34 -4 -45 -3 -41 7 2 6 10 13 18 14 79 10 84 13 108 58 30 57 59 64
36 9 -8 -20 -15 -39 -15 -43 0 -3 39 -4 86 -2 112 4 105 -14 -8 -24 -46 -4
-89 -12 -95 -17 -15 -12 -68 -174 -77 -235 -4 -26 -2 -43 4 -43 5 0 44 47 87
105 75 102 102 128 88 83 -22 -74 -20 -75 38 -19 61 59 81 61 66 5 -6 -19 -9
-47 -7 -62 4 -26 7 -24 76 47 45 46 77 71 86 68 20 -8 34 11 86 116 42 85 70
118 70 84 0 -8 -16 -48 -35 -88 -52 -110 -77 -217 -79 -331 -1 -97 -9 -123
-22 -72 -8 31 1 209 11 239 4 11 -17 -7 -47 -40 -44 -48 -58 -57 -69 -48 -11
9 -19 8 -33 -3 -44 -32 -76 -13 -76 44 l0 26 -27 -25 c-54 -48 -62 -52 -77
-40 -12 10 -24 1 -65 -52 -28 -36 -58 -67 -65 -70 -28 -11 -39 20 -32 93 l6
70 -49 -25 c-27 -13 -59 -39 -72 -57 -29 -43 -80 -97 -101 -109 -24 -13 -48 0
-48 26 0 24 58 83 108 109 34 18 48 55 28 75 -12 11 -27 12 -95 1 -74 -13 -82
-12 -101 5 -97 88 107 378 245 347 11 -3 28 -12 38 -20z m685 -250 c2 -7 -3
-12 -12 -12 -9 0 -16 7 -16 16 0 17 22 14 28 -4z m-27 -84 c-15 -42 -14 -78 2
-78 7 0 39 27 72 60 56 56 85 73 85 50 0 -5 -5 -10 -11 -10 -14 0 -42 -69 -35
-87 5 -12 9 -13 21 -3 11 9 14 23 9 45 -6 32 -6 32 43 37 26 3 53 7 58 9 6 2
11 0 13 -6 1 -5 -16 -16 -37 -23 -29 -10 -41 -20 -46 -40 -4 -15 -11 -33 -17
-39 -16 -20 -56 -15 -68 7 -11 21 -11 21 -41 -5 -57 -47 -96 -25 -85 48 8 46
37 100 44 79 2 -7 -1 -27 -7 -44z"/>
<path d="M697 1493 c-4 -3 -7 -55 -7 -115 0 -108 0 -109 23 -106 21 3 22 8 25
93 2 50 0 100 -3 113 -5 21 -25 29 -38 15z"/>
<path d="M1077 1423 c-5 -65 4 -98 21 -77 10 11 3 144 -7 144 -5 0 -11 -30
-14 -67z"/>
<path d="M1353 718 c-15 -20 -25 -38 -20 -38 3 0 12 11 21 25 17 26 16 35 -1
13z"/>
<path d="M700 530 c-37 -34 -34 -51 4 -26 27 17 53 56 37 56 -5 0 -23 -14 -41
-30z"/>
</g>
</svg>
